STARTFONT 2.1
FONT -Adobe-ITC Souvenir-Light-I-Normal--10-100-75-75-P-59-ISO8859-15
SIZE 10 75 75
FONTBOUNDINGBOX 13 13 -2 -2

STARTPROPERTIES 30
FOUNDRY "Adobe"
FAMILY_NAME "ITC Souvenir"
WEIGHT_NAME "Light"
SLANT "I"
SETWIDTH_NAME "Normal"
ADD_STYLE_NAME ""
PIXEL_SIZE 10
POINT_SIZE 100
RESOLUTION_X 75
RESOLUTION_Y 75
SPACING "P"
AVERAGE_WIDTH 59
CHARSET_REGISTRY "ISO8859"
CHARSET_ENCODING "15"
CAP_HEIGHT 8
X_HEIGHT 5
FACE_NAME "ITC Souvenir Light Italic"
COPYRIGHT "Copyright (c) 1984, 1987 Adobe Systems Incorporated. All Rights Reserved. Copyright (c) 1988, 1991 Digital Equipment Corporation. All Rights Reserved."
NOTICE "ITC Souvenir is a registered trademark of International Typeface Corporation.  "
_DEC_DEVICE_FONTNAMES "PS=Souvenir-LightItalic"
_DEC_PRODUCTINFO "DECwindows Fonts V2.2, 07-Nov-1991"
RELATIVE_SETWIDTH 50
RELATIVE_WEIGHT 30
CHARSET_COLLECTIONS "ASCII ISO8859-1 ADOBE-STANDARD"
FULL_NAME "ITC Souvenir Light Italic"
WEIGHT 10
QUAD_WIDTH 6
DEFAULT_CHAR 32
FONT_DESCENT 2
FONT_ASCENT 10
ENDPROPERTIES

CHARS 191

STARTCHAR space
ENCODING 32
SWIDTH 300 0
DWIDTH 3 0
BBX 1 1 0 0
BITMAP
00
ENDCHAR

STARTCHAR exclam
ENCODING 33
SWIDTH 300 0
DWIDTH 4 0
BBX 2 8 2 0
BITMAP
40
40
40
80
80
80
00
80
ENDCHAR

STARTCHAR quotedbl
ENCODING 34
SWIDTH 360 0
DWIDTH 4 0
BBX 4 3 1 5
BITMAP
50
A0
A0
ENDCHAR

STARTCHAR numbersign
ENCODING 35
SWIDTH 600 0
DWIDTH 6 0
BBX 7 7 0 1
BITMAP
14
14
76
28
EC
50
50
ENDCHAR

STARTCHAR dollar
ENCODING 36
SWIDTH 600 0
DWIDTH 6 0
BBX 6 10 0 -1
BITMAP
08
38
44
40
30
08
88
88
70
40
ENDCHAR

STARTCHAR percent
ENCODING 37
SWIDTH 900 0
DWIDTH 10 0
BBX 9 8 1 0
BITMAP
2100
5200
9400
A900
4A80
1480
2500
4200
ENDCHAR

STARTCHAR ampersand
ENCODING 38
SWIDTH 820 0
DWIDTH 9 0
BBX 8 8 0 0
BITMAP
18
24
28
31
49
8A
85
7A
ENDCHAR

STARTCHAR quoteright
ENCODING 39
SWIDTH 300 0
DWIDTH 3 0
BBX 2 3 1 5
BITMAP
40
40
80
ENDCHAR

STARTCHAR parenleft
ENCODING 40
SWIDTH 260 0
DWIDTH 3 0
BBX 3 9 0 -1
BITMAP
20
40
40
80
80
80
80
80
40
ENDCHAR

STARTCHAR parenright
ENCODING 41
SWIDTH 260 0
DWIDTH 4 0
BBX 3 9 0 -1
BITMAP
40
20
20
20
20
20
40
40
80
ENDCHAR

STARTCHAR asterisk
ENCODING 42
SWIDTH 540 0
DWIDTH 5 0
BBX 3 4 2 4
BITMAP
40
A0
40
A0
ENDCHAR

STARTCHAR plus
ENCODING 43
SWIDTH 660 0
DWIDTH 6 0
BBX 5 5 1 1
BITMAP
20
20
F8
20
20
ENDCHAR

STARTCHAR comma
ENCODING 44
SWIDTH 300 0
DWIDTH 3 0
BBX 2 3 0 -1
BITMAP
40
40
80
ENDCHAR

STARTCHAR minus
ENCODING 45
SWIDTH 660 0
DWIDTH 6 0
BBX 4 1 1 3
BITMAP
F0
ENDCHAR

STARTCHAR period
ENCODING 46
SWIDTH 300 0
DWIDTH 3 0
BBX 1 1 1 0
BITMAP
80
ENDCHAR

STARTCHAR slash
ENCODING 47
SWIDTH 220 0
DWIDTH 3 0
BBX 5 9 0 -1
BITMAP
08
08
10
10
20
20
40
40
80
ENDCHAR

STARTCHAR zero
ENCODING 48
SWIDTH 600 0
DWIDTH 6 0
BBX 5 8 1 0
BITMAP
30
48
48
88
88
90
90
60
ENDCHAR

STARTCHAR one
ENCODING 49
SWIDTH 600 0
DWIDTH 6 0
BBX 3 8 2 0
BITMAP
20
E0
20
20
40
40
40
E0
ENDCHAR

STARTCHAR two
ENCODING 50
SWIDTH 600 0
DWIDTH 6 0
BBX 5 8 1 0
BITMAP
30
48
48
08
30
40
88
F8
ENDCHAR

STARTCHAR three
ENCODING 51
SWIDTH 600 0
DWIDTH 6 0
BBX 5 8 1 0
BITMAP
30
48
10
30
08
88
90
70
ENDCHAR

STARTCHAR four
ENCODING 52
SWIDTH 600 0
DWIDTH 6 0
BBX 5 8 1 0
BITMAP
18
28
48
90
90
F8
20
70
ENDCHAR

STARTCHAR five
ENCODING 53
SWIDTH 600 0
DWIDTH 6 0
BBX 5 8 1 0
BITMAP
38
20
40
70
08
08
90
E0
ENDCHAR

STARTCHAR six
ENCODING 54
SWIDTH 600 0
DWIDTH 6 0
BBX 5 8 1 0
BITMAP
18
20
40
F0
88
88
88
70
ENDCHAR

STARTCHAR seven
ENCODING 55
SWIDTH 600 0
DWIDTH 6 0
BBX 5 8 2 0
BITMAP
78
88
10
20
20
40
80
80
ENDCHAR

STARTCHAR eight
ENCODING 56
SWIDTH 600 0
DWIDTH 6 0
BBX 5 8 1 0
BITMAP
30
48
48
70
88
88
90
60
ENDCHAR

STARTCHAR nine
ENCODING 57
SWIDTH 600 0
DWIDTH 6 0
BBX 5 8 1 0
BITMAP
30
48
88
88
78
10
20
C0
ENDCHAR

STARTCHAR colon
ENCODING 58
SWIDTH 300 0
DWIDTH 3 0
BBX 2 5 1 0
BITMAP
40
00
00
00
80
ENDCHAR

STARTCHAR semicolon
ENCODING 59
SWIDTH 300 0
DWIDTH 3 0
BBX 3 6 0 -1
BITMAP
20
00
00
40
40
80
ENDCHAR

STARTCHAR less
ENCODING 60
SWIDTH 660 0
DWIDTH 6 0
BBX 5 5 0 1
BITMAP
18
60
80
60
18
ENDCHAR

STARTCHAR equal
ENCODING 61
SWIDTH 660 0
DWIDTH 6 0
BBX 5 3 1 2
BITMAP
F8
00
F8
ENDCHAR

STARTCHAR greater
ENCODING 62
SWIDTH 660 0
DWIDTH 6 0
BBX 5 5 1 1
BITMAP
C0
30
08
30
C0
ENDCHAR

STARTCHAR question
ENCODING 63
SWIDTH 420 0
DWIDTH 5 0
BBX 4 8 1 0
BITMAP
60
90
10
20
40
40
00
80
ENDCHAR

STARTCHAR at
ENCODING 64
SWIDTH 820 0
DWIDTH 9 0
BBX 8 8 1 0
BITMAP
3C
42
9D
A5
A5
BA
80
7C
ENDCHAR

STARTCHAR A
ENCODING 65
SWIDTH 740 0
DWIDTH 8 0
BBX 8 8 0 0
BITMAP
04
0C
12
22
3E
42
42
E7
ENDCHAR

STARTCHAR B
ENCODING 66
SWIDTH 680 0
DWIDTH 7 0
BBX 7 8 0 0
BITMAP
7C
22
24
3C
62
42
42
FC
ENDCHAR

STARTCHAR C
ENCODING 67
SWIDTH 720 0
DWIDTH 7 0
BBX 7 8 1 0
BITMAP
1C
66
40
80
80
80
CC
70
ENDCHAR

STARTCHAR D
ENCODING 68
SWIDTH 760 0
DWIDTH 8 0
BBX 8 8 0 0
BITMAP
3E
13
21
21
21
42
46
F8
ENDCHAR

STARTCHAR E
ENCODING 69
SWIDTH 660 0
DWIDTH 7 0
BBX 7 8 0 0
BITMAP
7E
22
20
38
40
40
42
FC
ENDCHAR

STARTCHAR F
ENCODING 70
SWIDTH 580 0
DWIDTH 6 0
BBX 7 8 0 0
BITMAP
7E
22
20
38
40
40
40
E0
ENDCHAR

STARTCHAR G
ENCODING 71
SWIDTH 760 0
DWIDTH 8 0
BBX 7 8 1 0
BITMAP
1E
62
40
80
8E
82
C4
7C
ENDCHAR

STARTCHAR H
ENCODING 72
SWIDTH 820 0
DWIDTH 7 0
BBX 8 8 0 0
BITMAP
63
22
22
3E
44
44
44
C6
ENDCHAR

STARTCHAR I
ENCODING 73
SWIDTH 300 0
DWIDTH 4 0
BBX 4 8 1 0
BITMAP
70
20
20
20
40
40
40
E0
ENDCHAR

STARTCHAR J
ENCODING 74
SWIDTH 500 0
DWIDTH 6 0
BBX 6 8 0 0
BITMAP
1C
08
08
08
10
90
90
60
ENDCHAR

STARTCHAR K
ENCODING 75
SWIDTH 700 0
DWIDTH 8 0
BBX 8 8 0 0
BITMAP
73
22
24
28
78
44
44
C6
ENDCHAR

STARTCHAR L
ENCODING 76
SWIDTH 640 0
DWIDTH 6 0
BBX 6 8 0 0
BITMAP
70
20
20
20
40
40
44
F8
ENDCHAR

STARTCHAR M
ENCODING 77
SWIDTH 880 0
DWIDTH 10 0
BBX 10 8 0 0
BITMAP
60C0
2180
3280
5280
5500
4900
4900
E380
ENDCHAR

STARTCHAR N
ENCODING 78
SWIDTH 780 0
DWIDTH 8 0
BBX 9 8 0 0
BITMAP
7180
2900
2900
2500
4600
4200
4200
E200
ENDCHAR

STARTCHAR O
ENCODING 79
SWIDTH 780 0
DWIDTH 8 0
BBX 7 8 1 0
BITMAP
1C
66
42
82
82
84
CC
70
ENDCHAR

STARTCHAR P
ENCODING 80
SWIDTH 640 0
DWIDTH 7 0
BBX 7 8 0 0
BITMAP
7C
22
22
24
78
40
40
E0
ENDCHAR

STARTCHAR Q
ENCODING 81
SWIDTH 780 0
DWIDTH 8 0
BBX 7 9 1 -1
BITMAP
1C
66
42
82
82
92
D4
78
0C
ENDCHAR

STARTCHAR R
ENCODING 82
SWIDTH 700 0
DWIDTH 7 0
BBX 7 8 0 0
BITMAP
7C
22
22
24
78
48
44
C6
ENDCHAR

STARTCHAR S
ENCODING 83
SWIDTH 620 0
DWIDTH 6 0
BBX 6 8 0 0
BITMAP
3C
44
40
30
0C
C4
84
78
ENDCHAR

STARTCHAR T
ENCODING 84
SWIDTH 660 0
DWIDTH 7 0
BBX 7 8 1 0
BITMAP
FE
92
10
10
20
20
20
70
ENDCHAR

STARTCHAR U
ENCODING 85
SWIDTH 760 0
DWIDTH 8 0
BBX 8 8 1 0
BITMAP
E3
42
42
42
84
84
84
78
ENDCHAR

STARTCHAR V
ENCODING 86
SWIDTH 700 0
DWIDTH 7 0
BBX 8 8 0 0
BITMAP
E7
42
42
44
24
28
28
10
ENDCHAR

STARTCHAR W
ENCODING 87
SWIDTH 980 0
DWIDTH 10 0
BBX 11 8 0 0
BITMAP
CCE0
4440
4440
4480
4C80
4B00
3200
2200
ENDCHAR

STARTCHAR X
ENCODING 88
SWIDTH 740 0
DWIDTH 9 0
BBX 9 8 0 0
BITMAP
7380
2100
1200
0C00
1400
2200
4200
E700
ENDCHAR

STARTCHAR Y
ENCODING 89
SWIDTH 740 0
DWIDTH 8 0
BBX 8 8 1 0
BITMAP
E7
42
44
28
10
10
20
70
ENDCHAR

STARTCHAR Z
ENCODING 90
SWIDTH 580 0
DWIDTH 7 0
BBX 7 8 0 0
BITMAP
3E
42
04
08
10
20
42
FC
ENDCHAR

STARTCHAR bracketleft
ENCODING 91
SWIDTH 220 0
DWIDTH 3 0
BBX 3 9 0 -1
BITMAP
60
40
40
40
40
80
80
80
C0
ENDCHAR

STARTCHAR backslash
ENCODING 92
SWIDTH 600 0
DWIDTH 6 0
BBX 5 8 1 0
BITMAP
80
40
40
20
20
10
10
08
ENDCHAR

STARTCHAR bracketright
ENCODING 93
SWIDTH 220 0
DWIDTH 4 0
BBX 3 9 0 -1
BITMAP
60
20
20
20
40
40
40
40
C0
ENDCHAR

STARTCHAR asciicircum
ENCODING 94
SWIDTH 660 0
DWIDTH 6 0
BBX 5 5 1 3
BITMAP
20
50
50
88
88
ENDCHAR

STARTCHAR underscore
ENCODING 95
SWIDTH 500 0
DWIDTH 5 0
BBX 5 1 0 -2
BITMAP
F8
ENDCHAR

STARTCHAR quoteleft
ENCODING 96
SWIDTH 300 0
DWIDTH 3 0
BBX 2 3 1 5
BITMAP
80
80
40
ENDCHAR

STARTCHAR a
ENCODING 97
SWIDTH 520 0
DWIDTH 6 0
BBX 5 5 0 0
BITMAP
38
48
88
90
68
ENDCHAR

STARTCHAR b
ENCODING 98
SWIDTH 540 0
DWIDTH 6 0
BBX 6 8 0 0
BITMAP
60
20
20
38
44
44
48
B0
ENDCHAR

STARTCHAR c
ENCODING 99
SWIDTH 460 0
DWIDTH 5 0
BBX 5 5 0 0
BITMAP
30
48
80
90
60
ENDCHAR

STARTCHAR d
ENCODING 100
SWIDTH 580 0
DWIDTH 6 0
BBX 6 8 0 0
BITMAP
0C
04
04
28
48
88
90
68
ENDCHAR

STARTCHAR e
ENCODING 101
SWIDTH 500 0
DWIDTH 5 0
BBX 5 5 0 0
BITMAP
30
48
B0
80
70
ENDCHAR

STARTCHAR f
ENCODING 102
SWIDTH 360 0
DWIDTH 4 0
BBX 6 10 -1 -2
BITMAP
08
14
10
38
10
20
20
20
20
C0
ENDCHAR

STARTCHAR g
ENCODING 103
SWIDTH 520 0
DWIDTH 6 0
BBX 6 7 0 -2
BITMAP
34
48
88
88
70
10
E0
ENDCHAR

STARTCHAR h
ENCODING 104
SWIDTH 580 0
DWIDTH 6 0
BBX 5 8 0 0
BITMAP
60
20
40
70
48
88
90
98
ENDCHAR

STARTCHAR i
ENCODING 105
SWIDTH 280 0
DWIDTH 3 0
BBX 3 7 0 0
BITMAP
20
00
40
40
80
80
C0
ENDCHAR

STARTCHAR j
ENCODING 106
SWIDTH 260 0
DWIDTH 3 0
BBX 5 9 -2 -2
BITMAP
08
00
30
10
10
20
20
20
C0
ENDCHAR

STARTCHAR k
ENCODING 107
SWIDTH 560 0
DWIDTH 6 0
BBX 5 8 0 0
BITMAP
60
20
40
58
60
A0
90
98
ENDCHAR

STARTCHAR l
ENCODING 108
SWIDTH 300 0
DWIDTH 3 0
BBX 3 8 0 0
BITMAP
60
20
40
40
40
80
80
C0
ENDCHAR

STARTCHAR m
ENCODING 109
SWIDTH 880 0
DWIDTH 9 0
BBX 8 5 0 0
BITMAP
52
6D
49
92
92
ENDCHAR

STARTCHAR n
ENCODING 110
SWIDTH 600 0
DWIDTH 6 0
BBX 5 5 0 0
BITMAP
B0
48
48
90
98
ENDCHAR

STARTCHAR o
ENCODING 111
SWIDTH 560 0
DWIDTH 5 0
BBX 5 5 0 0
BITMAP
30
48
88
90
60
ENDCHAR

STARTCHAR p
ENCODING 112
SWIDTH 580 0
DWIDTH 6 0
BBX 6 7 -1 -2
BITMAP
58
24
24
44
58
40
C0
ENDCHAR

STARTCHAR q
ENCODING 113
SWIDTH 560 0
DWIDTH 6 0
BBX 6 7 0 -2
BITMAP
34
48
88
88
70
10
30
ENDCHAR

STARTCHAR r
ENCODING 114
SWIDTH 400 0
DWIDTH 4 0
BBX 4 5 0 0
BITMAP
B0
40
40
80
80
ENDCHAR

STARTCHAR s
ENCODING 115
SWIDTH 420 0
DWIDTH 5 0
BBX 5 5 0 0
BITMAP
30
48
20
90
60
ENDCHAR

STARTCHAR t
ENCODING 116
SWIDTH 360 0
DWIDTH 4 0
BBX 4 7 0 0
BITMAP
20
20
D0
40
40
80
60
ENDCHAR

STARTCHAR u
ENCODING 117
SWIDTH 580 0
DWIDTH 6 0
BBX 5 5 0 0
BITMAP
C8
48
90
90
68
ENDCHAR

STARTCHAR v
ENCODING 118
SWIDTH 480 0
DWIDTH 5 0
BBX 5 5 0 0
BITMAP
D8
48
88
90
60
ENDCHAR

STARTCHAR w
ENCODING 119
SWIDTH 720 0
DWIDTH 8 0
BBX 6 5 1 0
BITMAP
D4
54
A4
A8
50
ENDCHAR

STARTCHAR x
ENCODING 120
SWIDTH 540 0
DWIDTH 5 0
BBX 5 5 0 0
BITMAP
48
50
20
50
C8
ENDCHAR

STARTCHAR y
ENCODING 121
SWIDTH 500 0
DWIDTH 6 0
BBX 5 7 0 -2
BITMAP
C8
48
48
50
30
20
C0
ENDCHAR

STARTCHAR z
ENCODING 122
SWIDTH 460 0
DWIDTH 6 0
BBX 5 5 0 0
BITMAP
78
50
20
48
F0
ENDCHAR

STARTCHAR braceleft
ENCODING 123
SWIDTH 300 0
DWIDTH 4 0
BBX 4 9 0 -1
BITMAP
10
20
20
40
C0
40
40
40
20
ENDCHAR

STARTCHAR bar
ENCODING 124
SWIDTH 660 0
DWIDTH 7 0
BBX 1 8 3 0
BITMAP
80
80
80
80
80
80
80
80
ENDCHAR

STARTCHAR braceright
ENCODING 125
SWIDTH 300 0
DWIDTH 4 0
BBX 4 9 0 -1
BITMAP
40
20
20
20
30
40
40
40
80
ENDCHAR

STARTCHAR asciitilde
ENCODING 126
SWIDTH 660 0
DWIDTH 6 0
BBX 6 2 0 3
BITMAP
64
98
ENDCHAR

STARTCHAR space
ENCODING 160
SWIDTH 300 0
DWIDTH 3 0
BBX 1 1 0 0
BITMAP
00
ENDCHAR

STARTCHAR exclamdown
ENCODING 161
SWIDTH 300 0
DWIDTH 3 0
BBX 3 8 0 -2
BITMAP
20
00
40
40
40
80
80
80
ENDCHAR

STARTCHAR cent
ENCODING 162
SWIDTH 600 0
DWIDTH 6 0
BBX 5 8 1 0
BITMAP
10
30
48
80
80
88
70
20
ENDCHAR

STARTCHAR sterling
ENCODING 163
SWIDTH 600 0
DWIDTH 6 0
BBX 6 8 0 0
BITMAP
38
44
40
20
78
20
40
B8
ENDCHAR

STARTCHAR EuroSign
ENCODING 164
SWIDTH 500 0
DWIDTH 5 0
BBX 7 7 0 0
BITMAP
1E
20
F8
40
F0
40
78
ENDCHAR

STARTCHAR yen
ENCODING 165
SWIDTH 800 0
DWIDTH 6 0
BBX 7 8 0 0
BITMAP
EE
44
28
7C
10
78
20
70
ENDCHAR

STARTCHAR Scaron
ENCODING 166
SWIDTH 620 0
DWIDTH 6 0
BBX 6 11 0 0
BITMAP
28
10
00
3C
44
40
30
0C
C4
84
78
ENDCHAR

STARTCHAR section
ENCODING 167
SWIDTH 560 0
DWIDTH 7 0
BBX 5 9 1 -1
BITMAP
30
48
20
50
48
28
10
90
60
ENDCHAR

STARTCHAR scaron
ENCODING 168
SWIDTH 420 0
DWIDTH 5 0
BBX 5 8 0 0
BITMAP
28
10
00
30
48
20
90
60
ENDCHAR

STARTCHAR copyright
ENCODING 169
SWIDTH 820 0
DWIDTH 9 0
BBX 8 8 1 0
BITMAP
3E
41
9D
A1
A1
99
82
7C
ENDCHAR

STARTCHAR ordfeminine
ENCODING 170
SWIDTH 400 0
DWIDTH 5 0
BBX 4 5 1 3
BITMAP
60
A0
F0
00
E0
ENDCHAR

STARTCHAR guillemotleft
ENCODING 171
SWIDTH 360 0
DWIDTH 5 0
BBX 5 4 0 1
BITMAP
28
50
A0
50
ENDCHAR

STARTCHAR logicalnot
ENCODING 172
SWIDTH 660 0
DWIDTH 6 0
BBX 5 3 1 2
BITMAP
F8
08
08
ENDCHAR

STARTCHAR hyphen
ENCODING 173
SWIDTH 260 0
DWIDTH 4 0
BBX 3 1 1 3
BITMAP
E0
ENDCHAR

STARTCHAR registered
ENCODING 174
SWIDTH 820 0
DWIDTH 9 0
BBX 8 8 1 0
BITMAP
3E
41
BD
A5
B9
A5
82
7C
ENDCHAR

STARTCHAR macron
ENCODING 175
SWIDTH 300 0
DWIDTH 3 0
BBX 3 1 1 6
BITMAP
E0
ENDCHAR

STARTCHAR degree
ENCODING 176
SWIDTH 400 0
DWIDTH 4 0
BBX 3 3 1 5
BITMAP
60
A0
C0
ENDCHAR

STARTCHAR plusminus
ENCODING 177
SWIDTH 660 0
DWIDTH 6 0
BBX 5 5 1 1
BITMAP
20
F8
20
00
F8
ENDCHAR

STARTCHAR twosuperior
ENCODING 178
SWIDTH 360 0
DWIDTH 3 0
BBX 3 4 1 4
BITMAP
60
A0
40
E0
ENDCHAR

STARTCHAR threesuperior
ENCODING 179
SWIDTH 360 0
DWIDTH 3 0
BBX 3 4 1 4
BITMAP
E0
40
20
C0
ENDCHAR

STARTCHAR Zcaron
ENCODING 180
SWIDTH 580 0
DWIDTH 7 0
BBX 7 11 0 0
BITMAP
14
08
00
3E
42
04
08
10
20
42
FC
ENDCHAR

STARTCHAR mu
ENCODING 181
SWIDTH 580 0
DWIDTH 6 0
BBX 6 7 0 -2
BITMAP
64
24
48
48
74
80
80
ENDCHAR

STARTCHAR paragraph
ENCODING 182
SWIDTH 680 0
DWIDTH 8 0
BBX 8 10 1 -2
BITMAP
3F
4A
8A
94
94
74
14
28
28
28
ENDCHAR

STARTCHAR periodcentered
ENCODING 183
SWIDTH 300 0
DWIDTH 3 0
BBX 1 1 1 3
BITMAP
80
ENDCHAR

STARTCHAR zcaron
ENCODING 184
SWIDTH 460 0
DWIDTH 6 0
BBX 5 8 0 0
BITMAP
28
10
00
78
50
20
48
F0
ENDCHAR

STARTCHAR onesuperior
ENCODING 185
SWIDTH 360 0
DWIDTH 3 0
BBX 3 4 0 4
BITMAP
20
E0
40
40
ENDCHAR

STARTCHAR ordmasculine
ENCODING 186
SWIDTH 400 0
DWIDTH 5 0
BBX 3 5 2 3
BITMAP
60
A0
C0
00
E0
ENDCHAR

STARTCHAR guillemotright
ENCODING 187
SWIDTH 360 0
DWIDTH 5 0
BBX 5 4 0 1
BITMAP
50
28
50
A0
ENDCHAR

STARTCHAR Ligature_OE
ENCODING 188
SWIDTH 1000 0
DWIDTH 10 0
BBX 10 8 0 0
BITMAP
1FC0
6440
4400
8700
8800
8800
4840
7780
ENDCHAR

STARTCHAR Ligature_oe
ENCODING 189
SWIDTH 920 0
DWIDTH 10 0
BBX 9 5 0 0
BITMAP
3300
4C80
8B00
9800
6700
ENDCHAR

STARTCHAR Ydiaeresis
ENCODING 190
SWIDTH 740 0
DWIDTH 8 0
BBX 8 10 1 0
BITMAP
14
00
E7
42
44
28
10
10
20
70
ENDCHAR

STARTCHAR questiondown
ENCODING 191
SWIDTH 420 0
DWIDTH 5 0
BBX 4 8 0 -2
BITMAP
10
00
20
20
40
80
90
60
ENDCHAR

STARTCHAR Agrave
ENCODING 192
SWIDTH 740 0
DWIDTH 8 0
BBX 8 11 0 0
BITMAP
08
04
00
04
0C
12
22
3E
42
42
E7
ENDCHAR

STARTCHAR Aacute
ENCODING 193
SWIDTH 740 0
DWIDTH 8 0
BBX 8 11 0 0
BITMAP
02
04
00
04
0C
12
22
3E
42
42
E7
ENDCHAR

STARTCHAR Acircumflex
ENCODING 194
SWIDTH 740 0
DWIDTH 8 0
BBX 8 11 0 0
BITMAP
06
09
00
04
0C
12
22
3E
42
42
E7
ENDCHAR

STARTCHAR Atilde
ENCODING 195
SWIDTH 740 0
DWIDTH 8 0
BBX 8 11 0 0
BITMAP
05
0A
00
04
0C
12
22
3E
42
42
E7
ENDCHAR

STARTCHAR Adieresis
ENCODING 196
SWIDTH 740 0
DWIDTH 8 0
BBX 8 10 0 0
BITMAP
09
00
04
0C
12
22
3E
42
42
E7
ENDCHAR

STARTCHAR Aring
ENCODING 197
SWIDTH 740 0
DWIDTH 8 0
BBX 8 11 0 0
BITMAP
06
09
06
04
0C
12
22
3E
42
42
E7
ENDCHAR

STARTCHAR AE
ENCODING 198
SWIDTH 960 0
DWIDTH 10 0
BBX 11 8 -1 0
BITMAP
0FE0
0A20
1200
2380
2400
7C00
4460
E7C0
ENDCHAR

STARTCHAR Ccedilla
ENCODING 199
SWIDTH 720 0
DWIDTH 7 0
BBX 7 10 1 -2
BITMAP
1C
66
40
80
80
80
CC
70
20
60
ENDCHAR

STARTCHAR Egrave
ENCODING 200
SWIDTH 660 0
DWIDTH 7 0
BBX 7 11 0 0
BITMAP
10
08
00
7E
22
20
38
40
40
42
FC
ENDCHAR

STARTCHAR Eacute
ENCODING 201
SWIDTH 660 0
DWIDTH 7 0
BBX 7 11 0 0
BITMAP
04
08
00
7E
22
20
38
40
40
42
FC
ENDCHAR

STARTCHAR Ecircumflex
ENCODING 202
SWIDTH 660 0
DWIDTH 7 0
BBX 7 11 0 0
BITMAP
08
14
00
7E
22
20
38
40
40
42
FC
ENDCHAR

STARTCHAR Edieresis
ENCODING 203
SWIDTH 660 0
DWIDTH 7 0
BBX 7 10 0 0
BITMAP
14
00
7E
22
20
38
40
40
42
FC
ENDCHAR

STARTCHAR Igrave
ENCODING 204
SWIDTH 300 0
DWIDTH 4 0
BBX 4 11 1 0
BITMAP
40
20
00
70
20
20
20
40
40
40
E0
ENDCHAR

STARTCHAR Iacute
ENCODING 205
SWIDTH 300 0
DWIDTH 4 0
BBX 5 11 1 0
BITMAP
08
10
00
70
20
20
20
40
40
40
E0
ENDCHAR

STARTCHAR Icircumflex
ENCODING 206
SWIDTH 300 0
DWIDTH 4 0
BBX 4 11 1 0
BITMAP
20
50
00
70
20
20
20
40
40
40
E0
ENDCHAR

STARTCHAR Idieresis
ENCODING 207
SWIDTH 300 0
DWIDTH 4 0
BBX 4 10 1 0
BITMAP
50
00
70
20
20
20
40
40
40
E0
ENDCHAR

STARTCHAR Eth
ENCODING 208
SWIDTH 760 0
DWIDTH 8 0
BBX 8 8 0 0
BITMAP
3E
13
21
71
21
42
46
F8
ENDCHAR

STARTCHAR Ntilde
ENCODING 209
SWIDTH 780 0
DWIDTH 8 0
BBX 9 11 0 0
BITMAP
0D00
1600
0000
7180
2900
2900
2500
4600
4200
4200
E200
ENDCHAR

STARTCHAR Ograve
ENCODING 210
SWIDTH 780 0
DWIDTH 8 0
BBX 7 11 1 0
BITMAP
10
08
00
1C
66
42
82
82
84
CC
70
ENDCHAR

STARTCHAR Oacute
ENCODING 211
SWIDTH 780 0
DWIDTH 8 0
BBX 7 11 1 0
BITMAP
02
04
00
1C
66
42
82
82
84
CC
70
ENDCHAR

STARTCHAR Ocircumflex
ENCODING 212
SWIDTH 780 0
DWIDTH 8 0
BBX 7 11 1 0
BITMAP
08
14
00
1C
66
42
82
82
84
CC
70
ENDCHAR

STARTCHAR Otilde
ENCODING 213
SWIDTH 780 0
DWIDTH 8 0
BBX 7 11 1 0
BITMAP
0A
14
00
1C
66
42
82
82
84
CC
70
ENDCHAR

STARTCHAR Odieresis
ENCODING 214
SWIDTH 780 0
DWIDTH 8 0
BBX 7 10 1 0
BITMAP
14
00
1C
66
42
82
82
84
CC
70
ENDCHAR

STARTCHAR multiply
ENCODING 215
SWIDTH 660 0
DWIDTH 6 0
BBX 5 5 1 1
BITMAP
88
50
20
50
88
ENDCHAR

STARTCHAR Oslash
ENCODING 216
SWIDTH 780 0
DWIDTH 8 0
BBX 7 8 1 0
BITMAP
1A
64
4A
92
92
A4
4C
B0
ENDCHAR

STARTCHAR Ugrave
ENCODING 217
SWIDTH 760 0
DWIDTH 8 0
BBX 8 11 1 0
BITMAP
10
08
00
E3
42
42
42
84
84
84
78
ENDCHAR

STARTCHAR Uacute
ENCODING 218
SWIDTH 760 0
DWIDTH 8 0
BBX 8 11 1 0
BITMAP
04
08
00
E3
42
42
42
84
84
84
78
ENDCHAR

STARTCHAR Ucircumflex
ENCODING 219
SWIDTH 760 0
DWIDTH 8 0
BBX 8 11 1 0
BITMAP
08
14
00
E3
42
42
42
84
84
84
78
ENDCHAR

STARTCHAR Udieresis
ENCODING 220
SWIDTH 760 0
DWIDTH 8 0
BBX 8 10 1 0
BITMAP
14
00
E3
42
42
42
84
84
84
78
ENDCHAR

STARTCHAR Yacute
ENCODING 221
SWIDTH 740 0
DWIDTH 8 0
BBX 8 10 1 0
BITMAP
04
08
E7
42
44
28
10
10
20
70
ENDCHAR

STARTCHAR Thorn
ENCODING 222
SWIDTH 640 0
DWIDTH 7 0
BBX 7 8 0 0
BITMAP
60
3C
22
22
44
78
40
E0
ENDCHAR

STARTCHAR germandbls
ENCODING 223
SWIDTH 540 0
DWIDTH 6 0
BBX 6 8 0 0
BITMAP
18
24
24
28
28
44
44
D8
ENDCHAR

STARTCHAR agrave
ENCODING 224
SWIDTH 520 0
DWIDTH 6 0
BBX 5 8 0 0
BITMAP
20
10
00
38
48
88
90
68
ENDCHAR

STARTCHAR aacute
ENCODING 225
SWIDTH 520 0
DWIDTH 6 0
BBX 5 8 0 0
BITMAP
10
20
00
38
48
88
90
68
ENDCHAR

STARTCHAR acircumflex
ENCODING 226
SWIDTH 520 0
DWIDTH 6 0
BBX 5 8 0 0
BITMAP
10
28
00
38
48
88
90
68
ENDCHAR

STARTCHAR atilde
ENCODING 227
SWIDTH 520 0
DWIDTH 6 0
BBX 6 8 0 0
BITMAP
14
28
00
38
48
88
90
68
ENDCHAR

STARTCHAR adieresis
ENCODING 228
SWIDTH 520 0
DWIDTH 6 0
BBX 5 7 0 0
BITMAP
28
00
38
48
88
90
68
ENDCHAR

STARTCHAR aring
ENCODING 229
SWIDTH 520 0
DWIDTH 6 0
BBX 5 8 0 0
BITMAP
10
28
10
38
48
88
90
68
ENDCHAR

STARTCHAR ae
ENCODING 230
SWIDTH 820 0
DWIDTH 9 0
BBX 9 5 0 0
BITMAP
7300
0C80
7B00
8800
7700
ENDCHAR

STARTCHAR ccedilla
ENCODING 231
SWIDTH 460 0
DWIDTH 5 0
BBX 5 7 0 -2
BITMAP
30
48
80
90
60
40
80
ENDCHAR

STARTCHAR egrave
ENCODING 232
SWIDTH 500 0
DWIDTH 5 0
BBX 5 8 0 0
BITMAP
20
10
00
30
48
B0
80
70
ENDCHAR

STARTCHAR eacute
ENCODING 233
SWIDTH 500 0
DWIDTH 5 0
BBX 5 8 0 0
BITMAP
10
20
00
30
48
B0
80
70
ENDCHAR

STARTCHAR ecircumflex
ENCODING 234
SWIDTH 500 0
DWIDTH 5 0
BBX 5 8 0 0
BITMAP
10
28
00
30
48
B0
80
70
ENDCHAR

STARTCHAR edieresis
ENCODING 235
SWIDTH 500 0
DWIDTH 5 0
BBX 5 7 0 0
BITMAP
28
00
30
48
B0
80
70
ENDCHAR

STARTCHAR igrave
ENCODING 236
SWIDTH 280 0
DWIDTH 3 0
BBX 2 8 0 0
BITMAP
80
40
00
40
40
80
80
C0
ENDCHAR

STARTCHAR iacute
ENCODING 237
SWIDTH 280 0
DWIDTH 3 0
BBX 3 8 0 0
BITMAP
20
40
00
40
40
80
80
C0
ENDCHAR

STARTCHAR icircumflex
ENCODING 238
SWIDTH 280 0
DWIDTH 3 0
BBX 3 8 0 0
BITMAP
40
A0
00
40
40
80
80
C0
ENDCHAR

STARTCHAR idieresis
ENCODING 239
SWIDTH 280 0
DWIDTH 3 0
BBX 3 7 0 0
BITMAP
A0
00
40
40
80
80
C0
ENDCHAR

STARTCHAR eth
ENCODING 240
SWIDTH 560 0
DWIDTH 5 0
BBX 5 8 0 0
BITMAP
60
38
50
38
48
88
90
60
ENDCHAR

STARTCHAR ntilde
ENCODING 241
SWIDTH 600 0
DWIDTH 6 0
BBX 6 8 0 0
BITMAP
14
28
00
B0
48
48
90
98
ENDCHAR

STARTCHAR ograve
ENCODING 242
SWIDTH 560 0
DWIDTH 5 0
BBX 5 8 0 0
BITMAP
20
10
00
30
48
88
90
60
ENDCHAR

STARTCHAR oacute
ENCODING 243
SWIDTH 560 0
DWIDTH 5 0
BBX 5 8 0 0
BITMAP
10
20
00
30
48
88
90
60
ENDCHAR

STARTCHAR ocircumflex
ENCODING 244
SWIDTH 560 0
DWIDTH 5 0
BBX 5 8 0 0
BITMAP
10
28
00
30
48
88
90
60
ENDCHAR

STARTCHAR otilde
ENCODING 245
SWIDTH 560 0
DWIDTH 5 0
BBX 6 8 0 0
BITMAP
14
28
00
30
48
88
90
60
ENDCHAR

STARTCHAR odieresis
ENCODING 246
SWIDTH 560 0
DWIDTH 5 0
BBX 5 7 0 0
BITMAP
28
00
30
48
88
90
60
ENDCHAR

STARTCHAR divide
ENCODING 247
SWIDTH 660 0
DWIDTH 6 0
BBX 5 5 1 1
BITMAP
20
00
F8
00
20
ENDCHAR

STARTCHAR oslash
ENCODING 248
SWIDTH 560 0
DWIDTH 6 0
BBX 5 6 1 0
BITMAP
08
70
98
A8
C8
B0
ENDCHAR

STARTCHAR ugrave
ENCODING 249
SWIDTH 580 0
DWIDTH 6 0
BBX 5 8 0 0
BITMAP
20
10
00
C8
48
90
90
68
ENDCHAR

STARTCHAR uacute
ENCODING 250
SWIDTH 580 0
DWIDTH 6 0
BBX 5 8 0 0
BITMAP
10
20
00
C8
48
90
90
68
ENDCHAR

STARTCHAR ucircumflex
ENCODING 251
SWIDTH 580 0
DWIDTH 6 0
BBX 5 8 0 0
BITMAP
10
28
00
C8
48
90
90
68
ENDCHAR

STARTCHAR udieresis
ENCODING 252
SWIDTH 580 0
DWIDTH 6 0
BBX 5 7 0 0
BITMAP
28
00
C8
48
90
90
68
ENDCHAR

STARTCHAR yacute
ENCODING 253
SWIDTH 500 0
DWIDTH 6 0
BBX 5 10 1 -2
BITMAP
08
10
00
C8
48
48
50
30
20
C0
ENDCHAR

STARTCHAR thorn
ENCODING 254
SWIDTH 580 0
DWIDTH 6 0
BBX 6 10 -1 -2
BITMAP
30
10
10
38
24
24
44
58
40
C0
ENDCHAR

STARTCHAR ydieresis
ENCODING 255
SWIDTH 500 0
DWIDTH 6 0
BBX 5 9 1 -2
BITMAP
28
00
C8
48
48
50
30
20
C0
ENDCHAR
ENDFONT
